# xmcd CD database file
#
# Track frame offsets:
#	150
#	6779
#	29065
#	51103
#	69353
#	84877
#	107195
#	127599
#	131602
#	151986
#	172037
#	192846
#	216241
#	247087
#	266881
#
# Disc length: 4125 seconds
#
# Revision: 4
# Processed by: cddbd v1.5.2PL0 Copyright (c) Steve Scherf et al.
# Submitted via: CDex 1.70beta2
#
DISCID=d0101b0f
DTITLE=Aventura - God'S Project
DYEAR=2005
DGENRE=Salsa
TTITLE0=Intro
TTITLE1=Angelito
TTITLE2=La boda
TTITLE3=Un chi chi
TTITLE4=Volvio la traicionera
TTITLE5=La nina
TTITLE6=Our Song
TTITLE7=Bar Skit
TTITLE8=Ella y yo
TTITLE9=Un beso
TTITLE10=Voy malacostumbrado
TTITLE11=Ciego de amor
TTITLE12=Audition Skit
TTITLE13=Por tu orgullo
TTITLE14=You're Lying
EXTD=YEAR: 2005
EXTT0=
EXTT1=
EXTT2=
EXTT3=
EXTT4=
EXTT5=
EXTT6=
EXTT7=
EXTT8=
EXTT9=
EXTT10=
EXTT11=
EXTT12=
EXTT13=
EXTT14=
PLAYORDER=
